<?xml version="1.0" encoding="utf-8"?>
<!-- Generator: Adobe Illustrator 18.1.1, SVG Export Plug-In . SVG Version: 6.00 Build 0)  -->
<svg version="1.1" id="Layer_1" xmlns="http://www.w3.org/2000/svg" xmlns:xlink="http://www.w3.org/1999/xlink" x="0px" y="0px"
	 viewBox="0 0 300 300" enable-background="new 0 0 300 300" xml:space="preserve">
<g>
	<g>
		<g>
			<path fill="#00E2B7" d="M77.2,204.9H55.5V92.5h21.7V204.9z"/>
		</g>
		<g>
			<path fill="#00E2B7" d="M125.3,154.3c4-0.5,6.9-1.1,8.7-1.9c3.1-1.3,4.7-3.4,4.7-6.2c0-3.4-1.2-5.8-3.6-7
				c-2.4-1.3-5.9-1.9-10.5-1.9c-5.2,0-8.9,1.3-11,3.8c-1.5,1.9-2.6,4.4-3.1,7.6h-21c0.5-7.3,2.5-13.2,6.1-17.9
				c5.8-7.3,15.7-11,29.7-11c9.1,0,17.2,1.8,24.3,5.4c7.1,3.6,10.6,10.4,10.6,20.4v38.1c0,2.6,0,5.8,0.2,9.6
				c0.2,2.8,0.6,4.8,1.3,5.8c0.7,1,1.8,1.9,3.2,2.5v3.2h-23.6c-0.7-1.7-1.1-3.2-1.4-4.7c-0.3-1.5-0.5-3.2-0.6-5
				c-3,3.3-6.5,6-10.4,8.3c-4.7,2.7-10,4-15.9,4c-7.6,0-13.8-2.1-18.7-6.4c-4.9-4.3-7.4-10.4-7.4-18.2c0-10.2,4-17.6,11.9-22.2
				c4.4-2.5,10.7-4.3,19.2-5.3L125.3,154.3z M138.6,164.5c-1.4,0.9-2.8,1.6-4.2,2.1c-1.4,0.5-3.4,1-5.8,1.5l-4.9,0.9
				c-4.6,0.8-8,1.8-10,3c-3.4,2-5.1,5.1-5.1,9.2c0,3.7,1,6.4,3.1,8s4.6,2.5,7.6,2.5c4.7,0,9.1-1.4,13.1-4.1c4-2.7,6.1-7.7,6.2-15
				V164.5z"/>
		</g>
		<g>
			<path fill="#00E2B7" d="M244.7,131.8c6.2,7.9,9.3,18,9.3,30.5c0,12.9-3.1,23.6-9.2,32.1c-6.1,8.5-14.7,12.7-25.7,12.7
				c-6.9,0-12.4-1.4-16.6-4.1c-2.5-1.6-5.2-4.5-8.1-8.5v10.4h-21.4V92.7h21.7v39.9c2.8-3.9,5.8-6.8,9.1-8.8c3.9-2.5,8.9-3.8,15-3.8
				C229.9,120,238.5,123.9,244.7,131.8z M226.6,182.4c3.1-4.5,4.7-10.5,4.7-17.8c0-5.9-0.8-10.8-2.3-14.6c-2.9-7.3-8.3-11-16.1-11
				c-7.9,0-13.4,3.6-16.4,10.7c-1.5,3.8-2.3,8.7-2.3,14.8c0,7.1,1.6,13,4.8,17.7c3.2,4.7,8,7,14.5,7
				C219.1,189.2,223.5,186.9,226.6,182.4z"/>
		</g>
	</g>
	<g>
		<path fill="#00E2B7" d="M297.3,297.3H2.7V2.7h294.6V297.3z M24.4,275.6h251.2V24.4H24.4V275.6z"/>
	</g>
</g>
</svg>
